<svg width="63" height="63" viewBox="0 0 63 63" fill="none" xmlns="http://www.w3.org/2000/svg">
<circle cx="31.5" cy="31.5" r="31.5" fill="#E7F8E0"/>
<path d="M34 38.8L37 41.8L45 33.8" stroke="#52C41A" stroke-width="2.5" stroke-linecap="round" stroke-linejoin="round"/>
<path d="M30.5 19C32.025 19 33.4875 19.6321 34.5659 20.7574C35.6442 21.8826 36.25 23.4087 36.25 25C36.25 26.5913 35.6442 28.1174 34.5659 29.2426C33.4875 30.3679 32.025 31 30.5 31C28.975 31 27.5125 30.3679 26.4341 29.2426C25.3558 28.1174 24.75 26.5913 24.75 25C24.75 23.4087 25.3558 21.8826 26.4341 20.7574C27.5125 19.6321 28.975 19 30.5 19ZM31.5 34V34C35.2072 34.5869 28.5489 38.3517 30.9798 41.2115L31.8403 42.2239C32.1004 42.5299 31.883 43 31.4815 43H19V40C19 36.685 25.1462 34 31.5 34Z" fill="#52C41A"/>
</svg>
