<svg width="63" height="63" viewBox="0 0 63 63" fill="none" xmlns="http://www.w3.org/2000/svg">
<circle cx="31.5" cy="31.5" r="31.5" fill="#FFF7E6"/>
<path d="M28.2217 24.4457C28.0852 24.5852 27.9769 24.7514 27.903 24.9345C27.8291 25.1177 27.791 25.3142 27.791 25.5127C27.791 25.7112 27.8291 25.9077 27.903 26.0909C27.9769 26.274 28.0852 26.4402 28.2217 26.5797L31.0194 29.4757H17.4725C16.6626 29.4757 16 30.1616 16 31C16 31.8383 16.6626 32.5242 17.4725 32.5242H31.0194L28.2217 35.4202C28.0852 35.5597 27.9769 35.7259 27.903 35.909C27.8291 36.0922 27.791 36.2887 27.791 36.4872C27.791 36.6857 27.8291 36.8822 27.903 37.0654C27.9769 37.2485 28.0852 37.4147 28.2217 37.5542C28.7959 38.1486 29.7089 38.1486 30.2831 37.5542L35.5694 32.0822C35.7059 31.9411 35.8142 31.7737 35.8881 31.5893C35.962 31.4049 36 31.2072 36 31.0076C36 30.8079 35.962 30.6103 35.8881 30.4259C35.8142 30.2415 35.7059 30.074 35.5694 29.933L30.2831 24.4457C30.1484 24.3045 29.9879 24.1924 29.8109 24.1159C29.634 24.0394 29.4442 24 29.2524 24C29.0606 24 28.8708 24.0394 28.6939 24.1159C28.5169 24.1924 28.3564 24.3045 28.2217 24.4457Z" fill="#FA8C16"/>
<rect x="44" y="38" width="4" height="4" rx="1" fill="#FA8C16"/>
<rect x="44" y="22" width="4" height="12" rx="2" fill="#FA8C16"/>
</svg>
