<svg width="63" height="63" viewBox="0 0 63 63" fill="none" xmlns="http://www.w3.org/2000/svg">
<circle cx="31.5" cy="31.5" r="31.5" fill="#FFF1F0"/>
<path d="M41 25.6667H39.5V22.619C39.5 18.4133 36.14 15 32 15C27.86 15 24.5 18.4133 24.5 22.619V25.6667H23C21.35 25.6667 20 27.0381 20 28.7143V43.9524C20 45.6286 21.35 47 23 47H41C42.65 47 44 45.6286 44 43.9524V28.7143C44 27.0381 42.65 25.6667 41 25.6667ZM32 39.381C30.35 39.381 29 38.0095 29 36.3333C29 34.6571 30.35 33.2857 32 33.2857C33.65 33.2857 35 34.6571 35 36.3333C35 38.0095 33.65 39.381 32 39.381ZM36.65 25.6667H27.35V22.619C27.35 20.0133 29.435 17.8952 32 17.8952C34.565 17.8952 36.65 20.0133 36.65 22.619V25.6667Z" fill="#F5222D"/>
</svg>
