<svg width="63" height="63" viewBox="0 0 63 63" fill="none" xmlns="http://www.w3.org/2000/svg">
<circle cx="31.5" cy="31.5" r="31.5" fill="#E6F7FF"/>
<path d="M29.2945 24.3111C29.1461 24.4535 29.0283 24.623 28.9479 24.81C28.8675 24.9969 28.8261 25.1974 28.8261 25.4C28.8261 25.6026 28.8675 25.8031 28.9479 25.99C29.0283 26.177 29.1461 26.3465 29.2945 26.4889L32.3378 29.4444H17.6017C16.7208 29.4444 16 30.1444 16 31C16 31.8556 16.7208 32.5556 17.6017 32.5556H32.3378L29.2945 35.5111C29.1461 35.6535 29.0283 35.823 28.9479 36.01C28.8675 36.1969 28.8261 36.3974 28.8261 36.6C28.8261 36.8026 28.8675 37.0031 28.9479 37.19C29.0283 37.377 29.1461 37.5465 29.2945 37.6889C29.9192 38.2956 30.9122 38.2956 31.5369 37.6889L37.2872 32.1044C37.4357 31.9605 37.5535 31.7896 37.6339 31.6014C37.7142 31.4132 37.7556 31.2115 37.7556 31.0078C37.7556 30.804 37.7142 30.6023 37.6339 30.4141C37.5535 30.226 37.4357 30.055 37.2872 29.9111L31.5369 24.3111C31.3903 24.167 31.2157 24.0526 31.0233 23.9745C30.8308 23.8964 30.6243 23.8562 30.4157 23.8562C30.2071 23.8562 30.0006 23.8964 29.8081 23.9745C29.6157 24.0526 29.4411 24.167 29.2945 24.3111ZM41.7965 41.8889H27.5494C26.6685 41.8889 25.9477 42.5889 25.9477 43.4444C25.9477 44.3 26.6685 45 27.5494 45H41.7965C43.5584 45 45 43.6 45 41.8889V20.1111C45 18.4 43.5584 17 41.7965 17H27.5494C26.6685 17 25.9477 17.7 25.9477 18.5556C25.9477 19.4111 26.6685 20.1111 27.5494 20.1111H41.7965V41.8889Z" fill="#1890FF"/>
</svg>
