<svg width="63" height="63" viewBox="0 0 63 63" fill="none" xmlns="http://www.w3.org/2000/svg">
<circle cx="31.5" cy="31.5" r="31.5" fill="#F5F5F5"/>
<path d="M38.2314 24.3111C38.0881 24.4535 37.9744 24.623 37.8967 24.81C37.8191 24.9969 37.7791 25.1974 37.7791 25.4C37.7791 25.6026 37.8191 25.8031 37.8967 25.99C37.9744 26.177 38.0881 26.3465 38.2314 26.4889L41.1698 29.4444H26.9419C26.0913 29.4444 25.3953 30.1444 25.3953 31C25.3953 31.8556 26.0913 32.5556 26.9419 32.5556H41.1698L38.2314 35.5111C38.0881 35.6535 37.9744 35.823 37.8967 36.01C37.8191 36.1969 37.7791 36.3974 37.7791 36.6C37.7791 36.8026 37.8191 37.0031 37.8967 37.19C37.9744 37.377 38.0881 37.5465 38.2314 37.6889C38.8345 38.2956 39.7934 38.2956 40.3965 37.6889L45.9485 32.1044C46.0919 31.9605 46.2056 31.7896 46.2832 31.6014C46.3608 31.4132 46.4008 31.2115 46.4008 31.0078C46.4008 30.804 46.3608 30.6023 46.2832 30.4141C46.2056 30.226 46.0919 30.055 45.9485 29.9111L40.3965 24.3111C40.255 24.167 40.0864 24.0526 39.9006 23.9745C39.7147 23.8964 39.5153 23.8562 39.314 23.8562C39.1126 23.8562 38.9132 23.8964 38.7273 23.9745C38.5415 24.0526 38.3729 24.167 38.2314 24.3111ZM21.093 41.8889H34.8488C35.6994 41.8889 36.3953 42.5889 36.3953 43.4444C36.3953 44.3 35.6994 45 34.8488 45H21.093C19.3919 45 18 43.6 18 41.8889V20.1111C18 18.4 19.3919 17 21.093 17H34.8488C35.6994 17 36.3953 17.7 36.3953 18.5556C36.3953 19.4111 35.6994 20.1111 34.8488 20.1111H21.093V41.8889Z" fill="#8C8C8C"/>
</svg>
