<svg width="63" height="63" viewBox="0 0 63 63" fill="none" xmlns="http://www.w3.org/2000/svg">
<circle cx="31.5" cy="31.5" r="31.5" fill="#E6F7FF"/>
<path fill-rule="evenodd" clip-rule="evenodd" d="M14.3815 33.9879L10.6314 33.9879C10.5235 33.9878 10.4179 34.0197 10.3281 34.0796C10.2383 34.1396 10.1683 34.2248 10.127 34.3246C10.0857 34.4244 10.075 34.5341 10.0962 34.64C10.1173 34.7459 10.1695 34.8431 10.2459 34.9193L15.868 40.5413C16.0808 40.7541 16.4262 40.7541 16.639 40.5413L22.261 34.9193C22.3375 34.8431 22.3896 34.7459 22.4108 34.64C22.4319 34.5341 22.4212 34.4244 22.3799 34.3246C22.3386 34.2248 22.2686 34.1396 22.1788 34.0796C22.089 34.0197 21.9835 33.9878 21.8755 33.9879L17.6875 33.9879C17.1461 30.7165 17.7687 27.3588 19.4471 24.499C21.1255 21.6392 23.7534 19.4584 26.8736 18.3359C29.9938 17.2135 33.4087 17.2205 36.5243 18.3557C39.6398 19.4909 42.2588 21.6824 43.9255 24.5491C45.5922 27.4157 46.2011 30.7759 45.6463 34.0451C45.0915 37.3143 43.4081 40.2855 40.889 42.4418C38.3699 44.5981 35.1746 45.8029 31.859 45.8467C28.5433 45.8905 25.3173 44.7705 22.7421 42.6816C22.4053 42.4078 21.9736 42.279 21.5418 42.3235C21.1101 42.368 20.7137 42.5823 20.4399 42.919C20.1661 43.2558 20.0373 43.6876 20.0819 44.1193C20.1264 44.551 20.3406 44.9474 20.6774 45.2212C23.8286 47.7791 27.773 49.1584 31.8315 49.1216C35.8901 49.0848 39.8088 47.6342 42.9131 45.0196C46.0174 42.405 48.1131 38.7899 48.8394 34.7967C49.5656 30.8035 48.877 26.682 46.8921 23.1418C44.9071 19.6016 41.7501 16.8642 37.9644 15.4007C34.1787 13.9373 30.0013 13.8394 26.1512 15.124C22.3012 16.4086 19.0194 18.9952 16.8709 22.4386C14.7223 25.8819 13.8415 29.9666 14.38 33.9895L14.3815 33.9879Z" fill="#1890FF"/>
<path d="M25.314 31.643C25.314 31.0462 25.551 30.4739 25.973 30.052C26.3949 29.63 26.9672 29.393 27.564 29.393H35.439C36.0357 29.393 36.608 29.63 37.03 30.052C37.4519 30.4739 37.689 31.0462 37.689 31.643V37.268C37.689 37.8647 37.4519 38.437 37.03 38.859C36.608 39.2809 36.0357 39.518 35.439 39.518H27.564C26.9672 39.518 26.3949 39.2809 25.973 38.859C25.551 38.437 25.314 37.8647 25.314 37.268V31.643Z" fill="#1890FF"/>
<path fill-rule="evenodd" clip-rule="evenodd" d="M27.564 26.018C27.564 24.9737 27.9788 23.9722 28.7172 23.2337C29.4557 22.4953 30.4572 22.0805 31.5015 22.0805C32.5458 22.0805 33.5473 22.4953 34.2857 23.2337C35.0241 23.9722 35.439 24.9737 35.439 26.018V29.393H34.314V26.018C34.314 25.2721 34.0176 24.5567 33.4902 24.0292C32.9628 23.5018 32.2474 23.2055 31.5015 23.2055C30.7555 23.2055 30.0402 23.5018 29.5127 24.0292C28.9853 24.5567 28.689 25.2721 28.689 26.018V29.393H27.564V26.018Z" fill="#1890FF"/>
</svg>
