<svg width="63" height="63" viewBox="0 0 63 63" fill="none" xmlns="http://www.w3.org/2000/svg">
<circle cx="31.5" cy="31.5" r="31.5" fill="#E7F8E0"/>
<path d="M32 39.5C33.65 39.5 35 38.15 35 36.5C35 34.85 33.65 33.5 32 33.5C30.35 33.5 29 34.85 29 36.5C29 38.15 30.35 39.5 32 39.5ZM41 26H39.5V23C39.5 18.86 36.14 15.5 32 15.5C28.3444 15.5 25.2969 18.1197 24.6339 21.583C24.4859 22.356 25.138 23 25.925 23V23C26.712 23 27.3283 22.3472 27.5661 21.5969C28.1621 19.716 29.9238 18.35 32 18.35C34.565 18.35 36.65 20.435 36.65 23V26H23C21.35 26 20 27.35 20 29V44C20 45.65 21.35 47 23 47H41C42.65 47 44 45.65 44 44V29C44 27.35 42.65 26 41 26ZM41 44H23V29H41V44Z" fill="#52C41A"/>
</svg>
