<svg width="40" height="52" viewBox="0 0 40 52" fill="none" xmlns="http://www.w3.org/2000/svg">
<path d="M35 17.3333H32.5V12.381C32.5 5.54667 26.9 0 20 0C13.1 0 7.5 5.54667 7.5 12.381V17.3333H5C2.25 17.3333 0 19.5619 0 22.2857V47.0476C0 49.7714 2.25 52 5 52H35C37.75 52 40 49.7714 40 47.0476V22.2857C40 19.5619 37.75 17.3333 35 17.3333ZM20 39.619C17.25 39.619 15 37.3905 15 34.6667C15 31.9429 17.25 29.7143 20 29.7143C22.75 29.7143 25 31.9429 25 34.6667C25 37.3905 22.75 39.619 20 39.619ZM27.75 17.3333H12.25V12.381C12.25 8.14667 15.725 4.70476 20 4.70476C24.275 4.70476 27.75 8.14667 27.75 12.381V17.3333Z" fill="#768594"/>
</svg>
