<?xml version="1.0" standalone="no"?>
<!DOCTYPE svg PUBLIC "-//W3C//DTD SVG 20010904//EN"
 "http://www.w3.org/TR/2001/REC-SVG-20010904/DTD/svg10.dtd">
<svg version="1.0" xmlns="http://www.w3.org/2000/svg"
 width="310.000000pt" height="310.000000pt" viewBox="0 0 310.000000 310.000000"
 preserveAspectRatio="xMidYMid meet">
<metadata>
Created by potrace 1.11, written by Peter Selinger 2001-2013
</metadata>
<g transform="translate(0.000000,310.000000) scale(0.100000,-0.100000)"
fill="#000000" stroke="none">
<path d="M792 2327 c-419 -419 -762 -767 -762 -772 0 -6 22 -32 48 -58 l49
-48 717 717 717 717 659 -658 659 -659 -670 -670 -670 -670 -174 174 c-96 96
-175 178 -175 181 0 4 220 227 489 496 l490 489 -304 304 -304 304 -535 -536
c-295 -295 -536 -540 -536 -545 0 -5 22 -31 49 -57 l49 -49 487 488 488 487
193 -193 c107 -107 194 -197 194 -201 0 -4 -218 -225 -485 -492 -267 -266
-485 -488 -485 -493 0 -4 126 -134 280 -288 l280 -280 776 776 775 775 -762
762 c-419 419 -764 762 -768 762 -3 0 -349 -343 -769 -763z"/>
<path d="M902 1977 l-652 -652 53 -52 53 -52 599 599 c330 330 603 600 606
600 4 0 199 -192 433 -427 l427 -427 -496 -496 -495 -495 53 -53 52 -52 549
549 549 549 -532 531 c-292 292 -534 531 -538 531 -5 0 -302 -294 -661 -653z"/>
<path d="M1138 1250 c-219 -219 -398 -403 -398 -408 0 -5 23 -30 50 -56 l50
-47 404 403 404 403 -51 53 c-28 28 -54 52 -57 51 -3 0 -184 -180 -402 -399z"/>
</g>
</svg>
